<?xml version="1.0" encoding="UTF-8"?>
<svg width="9px" height="8px" viewBox="0 0 9 8" version="1.1" xmlns="http://www.w3.org/2000/svg" xmlns:xlink="http://www.w3.org/1999/xlink">
    <!-- Generator: sketchtool 60.1 (101010) - https://sketch.com -->
    <title>9FB7023F-922C-4684-9F9B-A5EA90646734</title>
    <desc>Created with sketchtool.</desc>
    <g id="Dev_Challenge_V2" stroke="none" stroke-width="1" fill="none" fill-rule="evenodd">
        <g id="Desktop-HD" transform="translate(-1097.000000, -901.000000)" fill="#2C2C2C" fill-rule="nonzero">
            <g id="Sheets-/-Bottom-Sheet" transform="translate(208.000000, 129.000000)">
                <g id="Group-8" transform="translate(72.000000, 98.000000)">
                    <g id="Group-6" transform="translate(58.000000, 332.000000)">
                        <g id="Group-3" transform="translate(0.000000, 69.000000)">
                            <g id="Comment-Copy">
                                <g id="Group-4" transform="translate(40.000000, 63.000000)">
                                    <g id="Group-5" transform="translate(32.000000, 69.000000)">
                                        <g id="Comment-Copy-3">
                                            <g id="Comment-Copy-5" transform="translate(30.000000, 138.000000)">
                                                <path d="M665.536,3.43596667 L665.536,4.32916667 L657,4.32916667 L657,3.43596667 L659.126667,3.43596667 L659.757333,3 L662.793333,3 L663.424,3.43596667 L665.536,3.43596667 Z M657.601333,10.0818 L657.601333,4.76513333 L664.934667,4.76513333 L664.934667,10.0818 C664.934667,10.3228234 664.812446,10.5319436 664.568,10.7091667 C664.323556,10.8863898 664.035113,10.975 663.702667,10.975 L658.833333,10.975 C658.500887,10.975 658.212444,10.8863898 657.968,10.7091667 C657.723554,10.5319436 657.601333,10.3228234 657.601333,10.0818 Z" id="delete---material"></path>
                                            </g>
                                        </g>
                                    </g>
                                </g>
                            </g>
                        </g>
                    </g>
                </g>
            </g>
        </g>
    </g>
</svg>